:SAMPLES-PER-SECOND 30
:FULLY-SPECIFIED
:DEGREES
268
root  -8.22074 31.1263 6.64105 144.943 -50.7893 -157.703
RightUpLeg  -26.3821 -13.7895 13.692
RightLeg  84.3732 0.613565 5.09797
RightFoot  -9.59414 -0.121902 3.73535
RightToes  5.82063e-011 0 -3.6325e-017
Spine  25.6794 2.25426 -2.59563
Spine1  5.31525 -0.373801 10.0518
HEad  -12.3652 41.9642 -0.211867
LeftShoulder1  1.64617 -5.05514 -12.131
LeftArm  -8.03876 1.31499 -52.4006
LeftForeArm  -2.27433 -72.1415 -41.421
LeftHand  -0.0360165 4.76433 2.81454
RightShoulder  1.61913 3.00793 18.3839
RightArm  -12.8418 -13.8001 46.1654
RightForeArm  -5.51878 67.2307 29.5619
RightHand  -0.750665 0.45929 -14.9169
LeftUpLeg  -26.8674 -17.6151 6.32238
LeftLeg  91.914 -3.0627 35.6955
LeftFoot  -5.71201 1.72866 -33.6722
LeftToes  3.99265e-010 -1.33173e-010 6.75004e-011
269
root  -8.33573 31.1782 6.51219 143.247 -48.0855 -156.982
RightUpLeg  -24.8544 -15.5549 14.1326
RightLeg  84.2591 0.820087 8.06064
RightFoot  -6.39041 -0.143171 2.32044
RightToes  5.82063e-011 0 -3.6325e-017
Spine  24.7783 3.26887 -1.80012
Spine1  5.71782 0.685669 11.1836
HEad  -9.27841 42.372 1.62183
LeftShoulder1  1.33747 -3.90602 -10.8394
LeftArm  -16.009 5.94819 -47.6289
LeftForeArm  43.518 -78.2543 -86.129
LeftHand  -0.13433 1.94964 3.83344
RightShoulder  1.49494 2.61025 17.9411
RightArm  -18.4096 -15.9449 42.7481
RightForeArm  6.35651 73.1594 42.7283
RightHand  -1.03638 1.98992 -16.3332
LeftUpLeg  -26.049 -18.8971 6.91119
LeftLeg  92.4099 -3.87303 39.4248
LeftFoot  0.142294 3.57108 -34.5304
LeftToes  3.99265e-010 -1.33173e-010 6.75004e-011
270
root  -8.50687 31.2093 6.40737 143.428 -45.3587 -157.599
RightUpLeg  -23.2661 -16.4943 14.3294
RightLeg  83.8163 0.987928 9.45497
RightFoot  -6.44283 -0.0559846 0.143195
RightToes  5.82063e-011 0 -3.6325e-017
Spine  23.8067 3.98632 -1.25704
Spine1  5.03945 1.67592 11.5516
HEad  -5.82949 43.3102 3.83825
LeftShoulder1  1.19546 -2.98389 -11.2473
LeftArm  -24.9673 15.2202 -42.0934
LeftForeArm  68.5859 -77.2821 -113
LeftHand  -0.496722 0.599724 11.7021
RightShoulder  1.44159 2.39211 17.9441
RightArm  -23.3899 -19.621 40.4993
RightForeArm  8.15587 74.3994 48.1635
RightHand  -1.39057 2.70533 -20.0237
LeftUpLeg  -24.8365 -19.2579 7.06165
LeftLeg  92.487 -4.20634 41.4421
LeftFoot  2.94636 4.60422 -35.7747
LeftToes  3.99265e-010 -1.33173e-010 6.75004e-011
271
root  -8.69847 31.2775 6.31567 145.345 -42.8228 -159.025
RightUpLeg  -21.6692 -16.4033 14.5513
RightLeg  82.4605 1.21768 9.50842
RightFoot  -10.4772 -0.0593144 -2.23954
RightToes  5.82063e-011 0 -3.6325e-017
Spine  21.8572 4.59267 -1.07274
Spine1  4.61764 2.59078 11.3205
HEad  -3.86444 44.1777 5.27927
LeftShoulder1  1.16742 -2.42371 -12.6356
LeftArm  -32.2117 25.8257 -38.105
LeftForeArm  49.2536 -77.9938 -92.13
LeftHand  -0.82009 1.26967 23.4045
RightShoulder  1.48416 2.38081 18.7784
RightArm  -27.049 -23.8648 39.2094
RightForeArm  -3.53748 71.4127 39.0557
RightHand  -1.59797 2.22579 -24.2546
LeftUpLeg  -23.2222 -18.6309 6.99242
LeftLeg  92.0798 -3.7989 41.037
LeftFoot  1.10265 4.25616 -37.886
LeftToes  3.99265e-010 -1.33173e-010 6.75004e-011
272
root  -8.84964 31.4017 6.26523 148.262 -41.1717 -160.527
RightUpLeg  -20.4296 -15.4707 14.6451
RightLeg  79.9967 1.5067 8.65205
RightFoot  -17.3958 -0.293658 -3.4389
RightToes  5.82063e-011 0 -3.6325e-017
Spine  18.9785 5.0398 -0.990367
Spine1  5.11987 3.326 10.2604
HEad  -4.47301 44.3836 5.21072
LeftShoulder1  1.27494 -2.46428 -14.4536
LeftArm  -37.9672 32.4948 -37.0944
LeftForeArm  -1.26385 -71.584 -40.8247
LeftHand  -0.277007 4.38751 34.0879
RightShoulder  1.6169 2.59802 20.1523
RightArm  -29.1948 -27.2716 39.0849
RightForeArm  -19.309 63.3511 25.5228
RightHand  -1.77568 1.30283 -30.2754
LeftUpLeg  -21.599 -17.5515 6.72034
LeftLeg  90.8831 -2.53644 38.3592
LeftFoot  -5.48563 2.14603 -39.8131
LeftToes  3.99265e-010 -1.33173e-010 6.75004e-011
273
root  -8.87065 31.5196 6.32015 150.993 -41.1988 -161.475
RightUpLeg  -20.0338 -14.5107 14.5839
RightLeg  77.079 1.62668 6.95349
RightFoot  -24.4295 -0.50529 -3.00199
RightToes  5.82063e-011 0 -3.6325e-017
Spine  16.9903 5.08611 -0.573532
Spine1  5.44247 3.77492 8.38099
HEad  -6.76448 43.6581 4.01854
LeftShoulder1  1.56881 -3.17541 -16.7725
LeftArm  -42.9479 32.5107 -38.0947
LeftForeArm  -32.1948 -53.0729 -16.9253
LeftHand  1.54832 9.13327 44.1776
RightShoulder  1.85115 3.17596 21.4494
RightArm  -28.7484 -28.6765 40.095
RightForeArm  -35.1045 51.0164 16.0802
RightHand  -1.69096 -0.331613 -37.9648
LeftUpLeg  -20.5624 -16.9022 6.41891
LeftLeg  88.7736 -0.786099 34.8686
LeftFoot  -14.0808 -0.858166 -38.9064
LeftToes  3.99265e-010 -1.33173e-010 6.75004e-011
274
root  -8.68614 31.6667 6.5316 153.201 -43.0891 -162.051
RightUpLeg  -20.6442 -13.8193 14.3433
RightLeg  74.2 1.40456 4.5857
RightFoot  -29.3586 -0.431175 -1.46763
RightToes  5.82063e-011 0 -3.6325e-017
Spine  17.3171 4.77656 -0.143087
Spine1  4.59399 3.8939 6.10754
HEad  -10.1874 42.059 1.77688
LeftShoulder1  1.95 -3.98903 -19.5451
LeftArm  -44.0852 27.5741 -39.6858
LeftForeArm  -52.1945 -34.2798 -9.55291
LeftHand  3.8668 13.8745 49.1335
RightShoulder  2.15702 3.98652 22.6012
RightArm  -23.1245 -27.8292 41.9478
RightForeArm  -49.3512 38.9776 11.1646
RightHand  -0.903344 -2.95736 -41.2787
LeftUpLeg  -20.4532 -16.8254 6.04671
LeftLeg  85.7684 1.18067 32.4361
LeftFoot  -21.4943 -2.9309 -33.6522
LeftToes  3.99265e-010 -1.33173e-010 6.75004e-011
275
root  -8.31859 31.9337 6.87243 155.534 -46.3681 -162.883
RightUpLeg  -22.2219 -12.6425 13.7988
RightLeg  71.3465 0.619188 1.17868
RightFoot  -32.0016 -0.0645177 0.843714
RightToes  5.82063e-011 0 -3.6325e-017
Spine  19.1164 4.38077 -0.252077
Spine1  3.31394 3.77112 3.75324
HEad  -15.4028 39.3827 -1.92996
LeftShoulder1  2.23555 -4.35208 -22.1497
LeftArm  -36.5355 21.2037 -42.6984
LeftForeArm  -65.6731 -25.2211 -7.49028
LeftHand  4.33767 15.8588 44.8598
RightShoulder  2.3968 4.54997 23.627
RightArm  -13.0712 -25.55 45.1418
RightForeArm  -56.1231 33.6029 9.64084
RightHand  -0.186877 -4.82314 -38.3695
LeftUpLeg  -21.2243 -16.8441 5.46557
LeftLeg  81.8474 3.33744 30.2593
LeftFoot  -27.626 -3.72917 -26.7455
LeftToes  3.99265e-010 -1.33173e-010 6.75004e-011
276
root  -7.87266 32.3337 7.25582 158.116 -50.6392 -163.971
RightUpLeg  -24.4835 -10.5453 12.9927
RightLeg  68.712 -1.27117 -4.36728
RightFoot  -32.4471 0.411497 3.42083
RightToes  5.82063e-011 0 -3.6325e-017
Spine  20.8113 3.88304 -0.44198
Spine1  2.70359 3.55224 1.53045
HEad  -21.3641 35.1922 -6.00852
LeftShoulder1  2.38937 -4.45922 -23.7748
LeftArm  -23.1721 15.3356 -47.4979
LeftForeArm  -72.4493 -27.6243 -8.17995
LeftHand  3.54828 15.8383 37.4253
RightShoulder  2.41901 4.54496 23.9312
RightArm  -6.30009 -22.6306 49.7568
RightForeArm  -52.5414 36.5584 10.5285
RightHand  -0.198196 -4.71069 -34.1136
LeftUpLeg  -22.8266 -16.7261 5.00325
LeftLeg  77.2374 4.95871 25.6976
LeftFoot  -32.475 -3.94255 -21.894
LeftToes  3.99265e-010 -1.33173e-010 6.75004e-011
277
root  -7.44626 32.9273 7.58183 160.133 -55.9764 -164.973
RightUpLeg  -26.158 -8.31915 11.8098
RightLeg  66.1677 -4.38929 -11.4278
RightFoot  -30.0855 0.623632 5.00756
RightToes  5.82063e-011 0 -3.6325e-017
Spine  21.9832 3.1833 -0.491293
Spine1  2.70255 3.14387 -0.0355397
HEad  -24.7972 30.0041 -8.18604
LeftShoulder1  2.48423 -4.75957 -23.8436
LeftArm  -12.8393 10.3062 -52.6611
LeftForeArm  -71.8126 -35.3975 -10.3323
LeftHand  2.81905 15.2336 32.0816
RightShoulder  2.24297 4.17757 23.0244
RightArm  -5.99054 -19.3476 53.9673
RightForeArm  -45.3182 44.4917 13.2879
RightHand  -0.312113 -4.26857 -31.8127
LeftUpLeg  -24.6194 -16.3407 4.52448
LeftLeg  72.4395 5.44003 19.6302
LeftFoot  -33.296 -3.3315 -17.9908
LeftToes  3.99265e-010 -1.33173e-010 6.75004e-011
278
root  -7.07933 33.809 7.77047 160.871 -62.5177 -165.461
RightUpLeg  -25.8477 -6.89121 10.2926
RightLeg  62.6546 -8.42524 -17.6294
RightFoot  -25.6596 0.481389 5.18361
RightToes  5.82063e-011 0 -3.6325e-017
Spine  22.7829 2.40174 -1.07845
Spine1  2.81169 2.24645 0.144518
HEad  -24.0455 25.0471 -7.80974
LeftShoulder1  2.51303 -5.229 -22.4845
LeftArm  -5.86588 6.65624 -56.8451
LeftForeArm  -67.5684 -44.276 -13.5004
LeftHand  2.49705 14.8497 29.749
RightShoulder  2.0174 3.78444 21.4126
RightArm  -8.27092 -16.6129 55.0794
RightForeArm  -37.5851 55.1712 18.892
RightHand  -0.39238 -4.01007 -32.2348
LeftUpLeg  -25.434 -15.5639 3.73495
LeftLeg  67.3506 5.04097 13.8408
LeftFoot  -29.7942 -1.91612 -12.752
LeftToes  3.99265e-010 -1.33173e-010 6.75004e-011
